<?xml version="1.0" encoding="UTF-8"?>
<!DOCTYPE svg PUBLIC "-//W3C//DTD SVG 1.1//EN" "http://www.w3.org/Graphics/SVG/1.1/DTD/svg11.dtd">
<!-- Creator: CorelDRAW 2020 (64 Bit) -->
<svg xmlns="http://www.w3.org/2000/svg" xml:space="preserve" width="25px" height="30px" version="1.1" style="shape-rendering:geometricPrecision; text-rendering:geometricPrecision; image-rendering:optimizeQuality; fill-rule:evenodd; clip-rule:evenodd"
viewBox="0 0 6.12 7.25"
 xmlns:xlink="http://www.w3.org/1999/xlink"
 xmlns:xodm="http://www.corel.com/coreldraw/odm/2003">
 <defs>
  <style type="text/css">
   <![CDATA[
    .fil0 {fill:#B0CB1F}
    .fil1 {fill:#009846}
    .fil3 {fill:#747474}
    .fil2 {fill:white}
   ]]>
  </style>
 </defs>
 <g id="Camada_x0020_1">
  <metadata id="CorelCorpID_0Corel-Layer"/>
  <path class="fil0" d="M0.01 2.26c1.68,-1.14 3.71,-1.58 5.98,-1.54l0.02 0.93 -3.65 0.04 0 1.01 3.38 -0.01 -0.01 1.55 -3.4 0.02 0.03 1.25 3.76 -0.02 0 1.76 -6.11 -0.02 0 -4.97z"/>
  <path class="fil1" d="M0.01 1.99l-0.01 -1.99 6 0.02 0.01 0.26c-2.77,-0.23 -4.52,0.6 -6,1.71z"/>
  <path class="fil1" d="M1.4 7.17l0 -0.59 0.09 0c0.11,0.23 0.1,0.17 0.21,0.3 0.04,0.04 0.06,0.04 0.09,0.08 -0.12,0.04 -0.18,-0.01 -0.25,-0.05l-0.02 0.07c-0.02,0.07 -0.07,0.15 -0.12,0.19zm0.36 -0.05c-0.01,0.01 0.03,0.01 -0.03,0.01 0.02,-0.05 0,-0.01 0.02,-0.03 0.05,-0.04 0.08,-0.07 0.1,-0.14 -0.05,-0.05 -0.3,-0.21 -0.32,-0.38l0.07 0 0.12 0.17c0.05,0.05 0.2,0.19 0.27,0.22 -0.03,0.07 -0.13,0.12 -0.23,0.15zm-0.85 -0.15c0.03,0.09 0.06,0.09 0.1,0.14 -0.1,-0.01 -0.21,-0.07 -0.24,-0.14 0.15,-0.09 0.3,-0.23 0.39,-0.39l0.07 0c-0.01,0.07 -0.1,0.18 -0.13,0.22 -0.06,0.08 -0.15,0.11 -0.19,0.17zm0.26 -0.42c-0.07,0 -0.09,-0.01 -0.1,-0.07 -0.07,-0.25 0,-0.2 0.3,-0.2l-0.01 0.27 -0.19 0zm0.23 -0.27c0.34,0 0.35,-0.02 0.31,0.17 -0.03,0.11 -0.05,0.11 -0.31,0.1l0 -0.27zm0.12 -0.03c0.05,-0.18 0.17,-0.42 0.27,-0.52 0.13,-0.12 0.3,-0.25 0.55,-0.17 0.19,0.06 0.32,0.21 0.35,0.43 0.04,0.26 -0.11,0.42 -0.36,0.42 0.35,-0.25 0.17,-0.64 -0.09,-0.71 -0.19,-0.05 -0.32,0.08 -0.39,0.17 -0.07,0.11 -0.17,0.23 -0.2,0.38l-0.13 0zm-1.09 0.16c-0.25,-0.01 -0.4,-0.15 -0.36,-0.42 0.05,-0.37 0.44,-0.6 0.79,-0.35 0.18,0.13 0.33,0.41 0.38,0.61l-0.12 0c-0.04,-0.15 -0.17,-0.34 -0.26,-0.43 -0.05,-0.05 -0.02,-0.03 -0.12,-0.09 -0.28,-0.19 -0.79,0.31 -0.31,0.68zm0.97 -2.13c0.04,0.06 0.09,0.17 0.12,0.24 0.04,0.08 0.09,0.16 0.13,0.23 0.1,0.14 0.23,0.26 0.25,0.48 0.02,0.22 -0.12,0.36 -0.19,0.52 -0.04,0.09 -0.08,0.16 -0.12,0.25 -0.04,0.07 -0.07,0.18 -0.11,0.25l-0.08 0 0 -1.97zm-1.3 2.01c0.1,0.14 0.37,0.19 0.53,0.12 -0.02,-0.06 -0.33,-0.26 -0.12,-0.42 0.05,-0.04 0.17,-0.08 0.26,-0.04 0.1,0.04 0.19,0.17 0.23,0.27 0.05,0.11 -0.02,0.07 0.04,0.27 0.03,0.1 0.12,0.08 -0.12,0.32 -0.08,0.09 -0.17,0.13 -0.19,0.16 0.05,0.09 0.25,0.21 0.4,0.19 -0.02,-0.03 -0.07,-0.05 -0.09,-0.07 -0.06,-0.04 -0.05,-0.03 -0.08,-0.09 0.14,0 0.12,0.02 0.25,-0.04 0.02,0.13 0.11,0.2 0.16,0.27l0.02 0c0.04,-0.06 0.14,-0.11 0.16,-0.27 0.1,0.04 0.12,0.06 0.25,0.04 -0.08,0.14 -0.14,0.1 -0.17,0.16 0.11,0.02 0.33,-0.07 0.4,-0.19l-0.2 -0.17c-0.06,-0.06 -0.12,-0.12 -0.15,-0.22 0.13,-0.2 0.03,-0.26 0.09,-0.38 0.21,-0.45 0.54,-0.23 0.55,-0.09 0.02,0.13 -0.16,0.23 -0.19,0.3 0.11,0.05 0.28,0.04 0.39,-0.01 0.24,-0.1 0.24,-0.36 0.16,-0.57 -0.02,-0.05 -0.05,-0.09 -0.07,-0.13 -0.06,-0.07 -0.14,-0.13 -0.24,-0.16 -0.19,-0.07 -0.34,-0.03 -0.49,0.08 -0.05,0.03 -0.06,0.06 -0.11,0.09 0.05,-0.12 0.15,-0.23 0.16,-0.4 0.02,-0.18 -0.05,-0.32 -0.13,-0.42 -0.13,-0.15 -0.13,-0.17 -0.23,-0.34 -0.03,-0.06 -0.06,-0.12 -0.09,-0.19 -0.03,-0.06 -0.06,-0.12 -0.09,-0.18l-0.02 0c-0.01,0.05 -0.06,0.13 -0.09,0.19 -0.1,0.21 -0.17,0.34 -0.32,0.52 -0.3,0.39 -0.02,0.67 0.03,0.82 -0.11,-0.07 -0.28,-0.3 -0.61,-0.17 -0.28,0.11 -0.46,0.5 -0.28,0.75z"/>
  <path class="fil2" d="M1.4 6.25l0.08 0c0.04,-0.07 0.07,-0.18 0.11,-0.25 0.04,-0.09 0.08,-0.16 0.12,-0.25 0.07,-0.16 0.21,-0.3 0.19,-0.52 -0.02,-0.22 -0.15,-0.34 -0.25,-0.48 -0.04,-0.07 -0.09,-0.15 -0.13,-0.23 -0.03,-0.07 -0.08,-0.18 -0.12,-0.24l0 1.97z"/>
  <path class="fil2" d="M1.52 6.25l0.13 0c0.03,-0.15 0.13,-0.27 0.2,-0.38 0.07,-0.09 0.2,-0.22 0.39,-0.17 0.26,0.07 0.44,0.46 0.09,0.71 0.25,0 0.4,-0.16 0.36,-0.42 -0.03,-0.22 -0.16,-0.37 -0.35,-0.43 -0.25,-0.08 -0.42,0.05 -0.55,0.17 -0.1,0.1 -0.22,0.34 -0.27,0.52z"/>
  <path class="fil2" d="M0.43 6.41c-0.48,-0.37 0.03,-0.87 0.31,-0.68 0.1,0.06 0.07,0.04 0.12,0.09 0.09,0.09 0.22,0.28 0.26,0.43l0.12 0c-0.05,-0.2 -0.2,-0.48 -0.38,-0.61 -0.35,-0.25 -0.74,-0.02 -0.79,0.35 -0.04,0.27 0.11,0.41 0.36,0.42z"/>
  <path class="fil2" d="M1.4 7.17c0.05,-0.04 0.1,-0.12 0.12,-0.19l0.02 -0.07c0.07,0.04 0.13,0.09 0.25,0.05 -0.03,-0.04 -0.05,-0.04 -0.09,-0.08 -0.11,-0.13 -0.1,-0.07 -0.21,-0.3l-0.09 0 0 0.59z"/>
  <path class="fil2" d="M1.4 6.55c0.26,0.01 0.28,0.01 0.31,-0.1 0.04,-0.19 0.03,-0.17 -0.31,-0.17l0 0.27z"/>
  <path class="fil2" d="M1.17 6.55l0.19 0 0.01 -0.27c-0.3,0 -0.37,-0.05 -0.3,0.2 0.01,0.06 0.03,0.07 0.1,0.07z"/>
  <path class="fil2" d="M1.75 7.1l0.01 0.02c0.1,-0.03 0.2,-0.08 0.23,-0.15 -0.07,-0.03 -0.22,-0.17 -0.27,-0.22l-0.12 -0.17 -0.07 0c0.02,0.17 0.27,0.33 0.32,0.38 -0.02,0.07 -0.05,0.1 -0.1,0.14z"/>
  <path class="fil2" d="M0.91 6.97c0.04,-0.06 0.13,-0.09 0.19,-0.17 0.03,-0.04 0.12,-0.15 0.13,-0.22l-0.07 0c-0.09,0.16 -0.24,0.3 -0.39,0.39 0.03,0.07 0.14,0.13 0.24,0.14 -0.04,-0.05 -0.07,-0.05 -0.1,-0.14z"/>
  <path class="fil3" d="M1.76 7.12l-0.01 -0.02c-0.02,0.02 0,-0.02 -0.02,0.03 0.06,0 0.02,0 0.03,-0.01z"/>
 </g>
</svg>
